<?xml version="1.0" encoding="utf-8"?>
<!-- Generator: Adobe Illustrator 26.0.3, SVG Export Plug-In . SVG Version: 6.00 Build 0)  -->
<svg version="1.1" id="Layer_1" xmlns="http://www.w3.org/2000/svg" xmlns:xlink="http://www.w3.org/1999/xlink" x="0px" y="0px"
	 viewBox="0 0 384.4 90.2" style="enable-background:new 0 0 384.4 90.2;" xml:space="preserve">
<style type="text/css">
	.st0{fill:#FF0000;}
</style>
<g id="zBA1vm">
	<path class="st0" d="M176.9,3.4c2.1-0.4,4.3-0.6,6.4-0.7c9.8-0.1,19.6-0.2,29.5,0.1c3.2,0.1,6.3,0.6,9.3,1.6
		c9.4,3.1,14.9,10,16,19.7c1.1,9.5-2.5,17.3-10.5,22.7c-2.2,1.5-4.6,2.6-7.4,4.1c0.9,1.8,1.7,3.6,2.6,5.3
		c4.4,8.2,8.8,16.4,13.3,24.6c1.2,2.2,2.3,4.5,0.4,7.9l-6.2,0.9L209,51.4h-23.2c-0.1,2-0.4,3.7-0.4,5.5c-0.1,8.3-0.1,16.7-0.1,25
		c0,2.5,0,5-2.6,7.2h-4.4c-2.4-1.3-2.5-3.5-2.5-5.7c0-24.6,0-49.3,0.1-73.9C176.1,7.4,176.4,5.4,176.9,3.4z M185.8,41.2
		c0.9,0.2,1.8,0.4,2.7,0.5c8.1,0,16.3,0.1,24.4-0.1c2.7-0.2,5.3-0.8,7.8-1.7c3.7-1.3,6.5-4.3,7.4-8.1c3-10.1-2.5-18.5-13.8-19.4
		c-9.1-0.7-18.2-0.1-27.4,0c-0.3,0-0.5,0.4-1.1,0.8V41.2z"/>
	<path class="st0" d="M135,51.3h-23.2c-0.2,2-0.4,3.7-0.4,5.5c-0.1,8.5-0.1,17-0.1,25.5c0,2.4-0.2,4.7-2.6,6.7h-5.6
		c-0.4-1.9-1.2-3.8-1.2-5.6c-0.1-24.8-0.1-49.6,0-74.4c0.2-1.7,0.4-3.5,0.9-5.2c1.8-0.5,3.6-0.9,5.4-1c10.7-0.1,21.3-0.2,32,0
		c12.1,0.3,21.2,8.1,23.6,19.8c2,10-2.6,20-11.9,25.3c-1.7,1-3.5,1.8-5.7,2.9c0.8,1.8,1.4,3.4,2.3,5c4.5,8.4,9,16.7,13.5,25
		c1.2,2.2,2.3,4.5,0.5,7.9l-6.3,1C148.9,76.5,142,63.9,135,51.3z M111.5,12c0,10.3-0.2,19.7,0,28.9c0.7,0.3,1.4,0.5,2.1,0.7
		c8.8,0,17.6,0.1,26.4-0.1c2.1-0.2,4.3-0.7,6.2-1.5c3.7-1.2,6.6-4.2,7.7-7.9c2.9-9.1-1.1-16.7-10.4-19.1c-2.1-0.5-4.2-0.8-6.4-0.9
		c-5.3-0.1-10.6-0.1-16-0.1L111.5,12z"/>
	<path class="st0" d="M250.9,33.7c0-8,0-16,0-24c-0.1-1.2,0-2.3,0.1-3.5c0.3-2.9,1.9-4.5,4.3-4.6c2.4-0.1,4.5,1.8,4.8,4.2
		c0.2,1.5,0.2,3,0.2,4.5c0,14.7,0,29.3,0,44c-0.1,2.3,0,4.7,0.2,7c1.4,10.9,9.4,17.9,20.1,18.5c12.7,0.7,21.7-8.8,22.6-17.5
		c0.3-2.7,0.5-5.3,0.6-8c0.1-14.8,0-29.7,0.1-44.5c-0.1-1.7,0.1-3.3,0.5-4.9c0.5-2,2.4-3.4,4.5-3.2c2.4,0,3.6,1.5,4.1,3.6
		c0.2,1,0.3,2,0.2,3c0,16.5,0.1,33,0,49.5c-0.2,13.7-7.8,25-19.6,29.2c-20.2,7.3-42.4-4.6-42.7-29.3
		C250.8,49.7,250.9,41.7,250.9,33.7z"/>
	<path class="st0" d="M375.9,16l-6.8-3.2c-6.6-3.2-13.4-4.8-20.8-2.7c-4.1,1.2-7.7,3.1-10.3,6.6c-4.2,5.8-3.5,12.5,2.3,16.7
		c3.2,2.2,6.6,3.9,10.1,5.2c4.8,1.9,9.8,3.2,14.6,4.9c2.2,0.7,4.4,1.5,6.5,2.4c15.8,6.5,15.4,24.4,7,33.6c-4.6,5.1-11,8.4-17.8,9.2
		c-13,1.8-24.7-1.8-35.2-9.4c-0.6-0.5-1.1-1.1-1.5-1.8c-0.2-4.8-0.2-4.8,4.6-7c1.9,1.2,4.2,2.5,6.5,3.9c8.6,5.3,17.9,7,27.7,4.2
		c3.6-1,6.8-3,9.1-5.8c5.4-6.5,3.7-14.8-4-18.1c-5.2-2.2-10.7-3.6-16-5.6c-5-1.9-10.1-3.6-14.7-6.1c-14.6-8.2-15.3-27.8-1.6-37.4
		c8.3-5.8,17.7-6.6,27.2-4.4c4.8,1.2,9.5,3.1,13.8,5.5C381.9,9.2,381.6,12.7,375.9,16z"/>
	<path class="st0" d="M61.4,27c-2.1,2.7-4.2,3.5-7.3,2.5c-0.9-1.8-2.1-4-3.2-6.2C45.9,12.4,33,7.7,22.1,12.7
		c-7.6,3.5-12.5,11-12.6,19.4c-0.3,9-0.3,18,0,27c0.3,10.1,6,17.8,14.7,20.6c9.3,3,18.4,0.1,24.9-8c0.3-0.4,0.6-0.8,0.9-1.2
		c3.5-4.2,6.2-3.9,9.5,1.6c-0.9,2-1.9,3.8-3.1,5.6c-8.7,10.8-20,14.7-33.4,11.4c-12.8-3.2-19.9-12-22.2-24.8C0.2,61.6,0,59,0,56.3
		c0.2-9.8-0.2-19.7,1-29.4C2.6,13,14.8,2.5,28.5,1.6c15.4-1,27.4,6.6,32.4,21.2C61.2,24.2,61.4,25.6,61.4,27z"/>
	<path class="st0" d="M80.4,88.9h-5c-0.5-1.7-1.5-3.3-1.5-4.9c-0.1-24.8-0.1-49.6,0-74.4c0-1.2,0.2-2.3,0.6-3.4
		c0.9-2.1,2.7-2.8,4.9-2.6c1.9,0.1,3.5,1.6,3.7,3.4c0.2,1.2,0.2,2.3,0.2,3.5c0,23.8,0,47.6-0.1,71.4C83.3,84.5,83.4,87,80.4,88.9z"
		/>
</g>
</svg>
