<?xml version="1.0" encoding="utf-8"?>
<!-- Generator: Adobe Illustrator 26.0.3, SVG Export Plug-In . SVG Version: 6.00 Build 0)  -->
<svg version="1.1" id="Layer_1" xmlns="http://www.w3.org/2000/svg" xmlns:xlink="http://www.w3.org/1999/xlink" x="0px" y="0px"
	 viewBox="0 0 388.3 83.1" style="enable-background:new 0 0 388.3 83.1;" xml:space="preserve">
<style type="text/css">
	.st0{fill:#FF0000;}
</style>
<g id="T1v671">
	<path class="st0" d="M2,55h5c-0.9-1.9-1.8-3.8-2.7-5.7c-1.1-2.3-2-4.7-3.2-7c-1-1.7-1.4-3.7-1-5.7s0.8-4,1.1-6h0.3
		c0.5,1,1,2,1.5,3.1c1.5,3.3,3,6.6,4.6,10s3.2,6.7,4.7,10.1c0.4,0.9,1.3,1.5,2.3,1.4c1.1,0,2.2,0,3.3,0c-2.4-5.3-4.8-10.6-7.3-15.9
		c-1.8-4-3.7-8-5.6-12c0-0.3-0.1-0.6-0.3-0.8c-1.6-1.9-0.6-3.6,0.5-5.3c0.5-0.8,1-1.6,1.6-2.7c0.6,1.1,1.1,2.1,1.5,3
		c1,2.1,2,4.2,3,6.4c2.1,4.6,4.2,9.1,6.2,13.7c1.2,2.6,2.4,5.2,3.6,7.8c0.6,1.4,1.2,2.8,1.9,4.1c0.3,1,1.3,1.7,2.4,1.7
		c1.2,0,2.3,0,3.5,0l-2.7-5.9l-6.3-13.6c-2.5-5.4-4.9-10.7-7.4-16c-0.8-1.7-1.5-3.3-2.2-5c-0.1-0.3,0-0.6,0.1-0.8
		c1.1-1.2,2.2-2.3,3.5-3.6c0.4,0.7,0.6,1.1,0.9,1.6c1.3,2.9,2.7,5.8,4,8.6c2.1,4.6,4.1,9.2,6.2,13.7c1.6,3.4,3.2,6.8,4.8,10.2
		c1.4,3,2.8,6,4.1,9c0.4,1.1,1.5,1.8,2.6,1.6c1,0,2,0,3.2,0c-0.4-0.9-0.7-1.7-1.1-2.5c-1.9-4-3.8-8-5.6-12c-2.4-5.3-4.8-10.7-7.3-16
		c-1.5-3.3-3.1-6.5-4.6-9.8C20,12.4,19,10.1,18,7.8c0-0.3,0.1-0.7,0.3-0.9c7.8-5.3,17.2-7.7,26.7-7C52.3,0.6,59.2,3,65.3,7
		c2.9,1.9,5.6,4.2,8,6.8c4.6,5,7.9,11.2,9.4,17.8c0.5,2.1,0.8,4.1,1,6.2c0.2,2.1,0.3,4.3,0.2,6.5c-0.3,4.3-1.2,8.4-2.8,12.4
		c-4,9.9-11.7,18-21.4,22.5c-3,1.4-6.2,2.4-9.5,3c-3.6,0.8-7.2,1-10.7,0.8c-4.2-0.2-8.4-1.1-12.4-2.6c-3.9-1.4-7.5-3.4-10.8-5.8
		c-2.7-2-5.1-4.4-7.3-7.1c-2-2.5-3.8-5.3-5.2-8.3C3.2,57.9,2.6,56.4,2,55z M12.1,60.9C22.8,77,44.2,81.7,60.6,71.6
		c17.5-10.8,22.1-32.9,11.1-49.4S39.4,2.4,25.1,10.5c1.8,4,3.6,8.1,5.5,12.1c1.3,2.8,2.7,5.6,4,8.4c1.8,4,3.6,8,5.5,12
		c1.5,3.4,3.1,6.9,4.7,10.4c0.4,1.2,1.6,1.9,2.8,1.8c2.6,0,5.1,0.1,7.7,0c2.2-0.1,4.4-0.6,6.6-0.9c0.4-0.1,0.8,0,1.2,0.2
		c1.8,1.5,3.6,3,5.4,4.5c0.7,0.6,1.3,1.2,2,1.7l-0.1,0.2H12.1z"/>
	<path class="st0" d="M156.4,47.6v-1.1c0-9.7,0-19.3,0-29c0-1.3,0-1.3,1.3-1.3h6.2V61c-1.4,0-2.9-0.1-4.4,0
		c-1.5,0.2-2.9-0.5-3.7-1.8c-2.8-3.9-5.9-7.5-8.8-11.3c-3.2-4.1-6.4-8.3-9.6-12.4c-1.6-2-3.2-4-5-6.3V61h-7.5c0-0.3-0.1-0.6-0.1-0.9
		c0-14.2,0-28.5,0-42.8c0-1,0.3-1.3,1.2-1.2c1.5,0.1,3.1,0,4.6,0c0.5,0,1.1,0.2,1.4,0.7c2.8,3.6,5.6,7.1,8.4,10.7
		c3.2,4.1,6.3,8.2,9.5,12.2c2,2.6,4,5.1,6,7.6c0.1,0.1,0.1,0.2,0.1,0.4L156.4,47.6z"/>
	<path class="st0" d="M258.6,15h6.3c0.6,0,0.7,0.4,0.7,0.9c0,1.5,0,3.1,0,4.6c0,13.3,0,26.5,0,39.8c0,0.2,0,0.4,0,0.7h-6.9v-3.2
		c-0.9,0.7-1.5,1.3-2.2,1.9c-2.7,1.8-6.1,2.6-9.3,2c-2.7-0.3-5.2-1.3-7.4-2.9c-3.4-2.6-5.6-6.5-6-10.8c-0.3-2.7,0-5.4,0.8-7.9
		c1.4-4.9,5.4-8.7,10.3-9.9c3.8-1.1,7.6-0.9,11,1.3c0.9,0.7,1.8,1.4,2.7,2.2V15z M259.1,45.8c-0.1-0.7-0.2-1.5-0.3-2.2
		c-0.5-3.2-2.6-5.8-5.7-6.9c-3.3-1.3-7.2-0.5-9.7,2.1c-2.1,2.2-3.1,5.3-2.6,8.3c0.6,4.1,2.9,7.2,7.4,8c2.9,0.6,5.9-0.3,8-2.4
		C258.1,50.9,259.2,48.4,259.1,45.8z"/>
	<path class="st0" d="M281,58.2v15.4h-6.9V30.2h6.1c0.5,0,0.8,0.3,0.7,0.8c0,0.7,0,1.4,0,2.1c1.2-0.8,2.4-1.7,3.7-2.4
		c2.2-1.1,4.7-1.5,7.1-1.2c2.4,0.2,4.7,1.1,6.8,2.4c3.3,2,5.6,5.2,6.6,8.9c1.4,5.3,0.8,10.3-2.5,14.8c-2.4,3.4-6.1,5.5-10.2,5.9
		c-2.5,0.4-5,0.1-7.3-0.8C283.7,60,282.3,59.2,281,58.2z M298.6,45.7c0.1-2.9-1.1-5.7-3.3-7.5c-3.5-2.9-8.7-2.7-12,0.4
		c-2.2,2.2-3.2,5.3-2.8,8.4c0.5,4.3,3.1,7.4,7.6,8.1c2.9,0.5,5.8-0.4,7.9-2.5C297.8,50.8,298.8,48.3,298.6,45.7L298.6,45.7z"/>
	<path class="st0" d="M170.9,45.7c-0.2-9.2,7.2-16.3,16.6-16.3S203.4,36,204,44.1c0.9,11.1-7.6,17.6-16.5,17.6
		C178.1,61.9,170.7,54.8,170.9,45.7z M178.1,45.7c-0.2,5,3.7,9.2,8.7,9.5c5.1,0.5,9.6-3.2,10.1-8.2c0-0.3,0-0.5,0-0.8
		c0.4-5.1-3.5-9.6-8.6-10c-0.3,0-0.6,0-0.8,0c-5.1-0.2-9.3,3.8-9.5,8.9C178.1,45.3,178.1,45.5,178.1,45.7L178.1,45.7z"/>
	<path class="st0" d="M364.1,52.6c1.5,0.8,3,1.5,4.6,2.1c3.1,1,6.4,1.1,9.6,0.3c1-0.1,2-0.7,2.5-1.6c0.9-1.7,0.3-2.9-1.7-3.7
		c-2-0.6-4-1-6-1.2c-2.4-0.3-4.8-1-7-2.2c-3.5-2-4.4-5.8-3.5-9.3c1-4.1,4.1-6.2,8-7.1c1.5-0.4,3.1-0.6,4.7-0.6
		c3.7,0,7.4,0.8,10.7,2.3c0.4,0.2,0.8,0.4,1.1,0.7c0.2,0.2,0.4,0.7,0.3,0.8c-0.8,1.6-1.6,3.1-2.5,4.6c-0.1,0.1-0.6,0.1-0.9,0
		c-3.1-1.6-6.5-2.4-9.9-2.2c-1.4,0-2.8,0.6-3.9,1.6c-1.2,1.3-1.1,3,0.6,3.7c1.4,0.5,2.8,0.9,4.3,1.1c3.4,0.5,6.8,1,9.8,2.9
		c2.1,1.3,3.4,3.6,3.4,6.1c0.4,4.9-3,8.3-7.2,9.7c-2.5,0.8-5.1,1.1-7.8,1c-4-0.1-7.9-1.2-11.4-3.2c-1-0.7-1.1-0.8-0.5-1.8
		C362.4,55.4,363.3,54,364.1,52.6z"/>
	<path class="st0" d="M348.7,30.2c2.2,0,4.2,0,6.3,0c0.2,0,0.5,0.3,0.6,0.6s0,0.5,0,0.7c0,5.8,0,11.5,0,17.3
		c0.1,3.3-1.2,6.5-3.4,8.9c-2.2,2.3-5.2,3.7-8.4,3.9c-1,0.1-1.9,0.2-2.9,0.2c-3.1,0-6.1-0.9-8.7-2.6c-2.7-2-4.7-4.6-4.9-8
		c-0.3-6.6-0.2-13.2-0.3-19.8v-1.2c2.2,0,4.3,0,6.4,0c0.2,0,0.5,0.5,0.5,0.8c0,1.4,0,2.9,0,4.3c0,4.3,0,8.6,0,13
		c-0.1,1.7,0.5,3.4,1.7,4.7c1.9,2.1,4.5,2.4,7.1,2.1c4.3-0.6,5.9-3.5,5.9-7.2c0.1-5.5,0-11,0-16.5C348.7,31,348.7,30.7,348.7,30.2z"
		/>
	<path class="st0" d="M312.1,15c2.1,0,4.2,0,6.3,0c0.2,0,0.4,0.4,0.6,0.6s0,0.3,0,0.5V61h-6.9V15z"/>
	<path class="st0" d="M217.1,30.2v3.3c1.6-2,3.8-3.3,6.3-3.8c2.4-0.5,4.9-0.3,7.3,0.5c0.4,0.2,0.6,0.3,0.4,0.8
		c-0.5,2.1-1,4.2-1.5,6.3l-3-0.8c-4.1-1.1-8.4,0.9-9.2,5.6c-0.1,0.6-0.2,1.1-0.2,1.7c0,5.5,0,10.9,0,16.4V61h-6.9
		c-0.1-0.2-0.1-0.4-0.1-0.6c0-9.7,0-19.3,0-29c0-0.9,0.2-1.3,1.2-1.2C213.3,30.3,215.2,30.2,217.1,30.2z"/>
</g>
</svg>
