<svg id="Layer_1" data-name="Layer 1" xmlns="http://www.w3.org/2000/svg" viewBox="0 0 399.62 104.2"><defs><style>.cls-1{fill:#fff;}</style></defs><g id="T1v671"><path d="M7.73,66.62h5c-.9-1.87-1.83-3.78-2.72-5.71-1.08-2.33-2-4.73-3.19-7a8.29,8.29,0,0,1-1-5.69c.39-2,.75-4,1.13-6l.3-.05c.51,1,1,2.05,1.52,3.09,1.52,3.31,3,6.64,4.55,10S16.48,62,18,65.35a2.28,2.28,0,0,0,2.32,1.41c1.11,0,2.22,0,3.27,0-2.43-5.32-4.82-10.61-7.25-15.89-1.84-4-3.73-8-5.59-12a3.34,3.34,0,0,0-.32-.8c-1.62-1.93-.62-3.6.47-5.28.52-.8,1-1.64,1.61-2.7.57,1.15,1.06,2.09,1.5,3.05Q15.52,36.31,17,39.5q3.12,6.86,6.24,13.71c1.19,2.59,2.42,5.16,3.62,7.75.63,1.36,1.22,2.75,1.86,4.11a2.49,2.49,0,0,0,2.37,1.68c1.15,0,2.29,0,3.48,0l-2.72-5.94L25.54,47.2q-3.67-7.94-7.33-15.87c-.76-1.66-1.48-3.33-2.18-5a.89.89,0,0,1,.13-.82c1.08-1.17,2.21-2.29,3.48-3.59.37.67.65,1.15.89,1.65q2,4.31,4,8.63c2.08,4.57,4.13,9.16,6.23,13.72,1.57,3.43,3.21,6.83,4.81,10.25q2.09,4.48,4.12,9a2.47,2.47,0,0,0,2.59,1.63c1,0,2,0,3.16,0-.39-.87-.73-1.67-1.1-2.46-1.86-4-3.75-8-5.6-12-2.44-5.32-4.85-10.66-7.3-16-1.51-3.28-3.06-6.54-4.58-9.82-1.06-2.29-2.12-4.58-3.12-6.9a1,1,0,0,1,.33-.89,41.85,41.85,0,0,1,26.66-7,41,41,0,0,1,20.21,6.88,42.12,42.12,0,0,1,8,6.85,39.31,39.31,0,0,1,9.41,17.82,47,47,0,0,1,1,6.25A40,40,0,0,1,89.55,56a40.85,40.85,0,0,1-2.82,12.4A42.16,42.16,0,0,1,65.3,90.88a42.53,42.53,0,0,1-9.45,3,43.31,43.31,0,0,1-10.71.71,40.8,40.8,0,0,1-12.37-2.57A42.24,42.24,0,0,1,22,86.19a40.88,40.88,0,0,1-7.26-7.08,41.87,41.87,0,0,1-5.23-8.28C8.88,69.46,8.33,68,7.73,66.62Zm10.08,5.85A35.77,35.77,0,0,0,66.35,83.16C83.81,72.35,88.41,50.31,77.43,33.78S45.1,14,30.79,22.13c1.81,4,3.61,8.05,5.46,12.07,1.29,2.82,2.66,5.61,4,8.42,1.83,4,3.63,8,5.45,12C47.24,58,48.85,61.49,50.43,65a2.63,2.63,0,0,0,2.8,1.8c2.56,0,5.13.12,7.68,0,2.22-.14,4.42-.63,6.63-.92a1.8,1.8,0,0,1,1.21.19c1.83,1.48,3.62,3,5.42,4.54.67.57,1.32,1.16,2,1.74l-.12.2Z"/><path d="M162.06,59.23V58.1q0-14.51,0-29c0-1.27,0-1.28,1.31-1.28h6.16V72.66c-1.45,0-2.92-.11-4.37,0a3.66,3.66,0,0,1-3.68-1.8c-2.81-3.86-5.86-7.55-8.8-11.33-3.21-4.12-6.4-8.27-9.61-12.39-1.58-2-3.2-4-5-6.28V72.61h-7.5c0-.3-.05-.58-.05-.86q0-21.37,0-42.75c0-.95.28-1.26,1.23-1.22,1.54.06,3.08,0,4.63,0a1.5,1.5,0,0,1,1.37.68c2.76,3.59,5.58,7.13,8.36,10.7,3.18,4.07,6.33,8.17,9.52,12.24,2,2.56,4,5.09,6,7.63a1.12,1.12,0,0,1,.1.38Z"/><path d="M264.27,26.62h6.28c.64,0,.73.39.73.9,0,1.53,0,3.05,0,4.58q0,19.9,0,39.82c0,.2,0,.39,0,.66h-6.88V69.37c-.85.72-1.5,1.34-2.22,1.86a12.72,12.72,0,0,1-9.31,2,14.51,14.51,0,0,1-7.36-2.94,15.34,15.34,0,0,1-6-10.8,18.38,18.38,0,0,1,.8-7.94,14.44,14.44,0,0,1,10.3-9.93c3.82-1.09,7.57-.91,11,1.34a33.73,33.73,0,0,1,2.7,2.19Zm.54,30.77c-.1-.73-.17-1.46-.3-2.18a8.69,8.69,0,0,0-5.66-6.89,8.86,8.86,0,0,0-9.68,2.07,9.69,9.69,0,0,0-2.57,8.33c.56,4.08,2.88,7.23,7.38,8a8.88,8.88,0,0,0,8-2.4A9.54,9.54,0,0,0,264.81,57.39Z"/><path d="M286.66,69.85V85.23h-6.89V41.82h6.13c.55,0,.75.27.74.78,0,.72,0,1.43,0,2.12,1.25-.81,2.42-1.7,3.71-2.37a12.16,12.16,0,0,1,7.15-1.15,15.52,15.52,0,0,1,6.78,2.37,14.57,14.57,0,0,1,6.57,8.91c1.38,5.29.8,10.34-2.46,14.85a14.35,14.35,0,0,1-10.25,5.93,13.12,13.12,0,0,1-7.32-.85A40.11,40.11,0,0,1,286.66,69.85Zm17.67-12.57A9.52,9.52,0,0,0,301,49.75a9.15,9.15,0,0,0-12,.43,9.8,9.8,0,0,0-2.78,8.42c.5,4.32,3.12,7.43,7.59,8.08a8.82,8.82,0,0,0,7.85-2.49A9.15,9.15,0,0,0,304.33,57.28Z"/><path d="M176.63,57.34c-.18-9.2,7.2-16.33,16.65-16.26s15.87,6.65,16.5,14.73c.87,11.07-7.64,17.61-16.48,17.64C183.77,73.49,176.4,66.41,176.63,57.34Zm7.15,0a9.12,9.12,0,0,0,8.72,9.46,9.23,9.23,0,0,0,10.18-9,9.35,9.35,0,0,0-9.45-10.07A9.18,9.18,0,0,0,183.78,57.31Z"/><path d="M369.79,64.25a42.78,42.78,0,0,0,4.62,2.13,17.17,17.17,0,0,0,9.61.34,3.44,3.44,0,0,0,2.52-1.64c.85-1.71.27-2.94-1.74-3.65a36.83,36.83,0,0,0-6.05-1.21,20.18,20.18,0,0,1-7-2.19c-3.51-2.05-4.4-5.8-3.54-9.29,1-4.13,4.07-6.16,8-7.06a19.71,19.71,0,0,1,4.7-.59,25.3,25.3,0,0,1,10.72,2.32,4.75,4.75,0,0,1,1.15.69c.2.19.41.65.31.83-.79,1.58-1.63,3.12-2.52,4.64-.08.14-.65.13-.9,0a19.58,19.58,0,0,0-9.92-2.23,5.49,5.49,0,0,0-3.85,1.57c-1.21,1.28-1.11,3,.57,3.7a20.77,20.77,0,0,0,4.29,1.09c3.41.55,6.84,1,9.83,2.91A7.42,7.42,0,0,1,394,62.73c.37,4.93-3,8.34-7.17,9.66a21.57,21.57,0,0,1-7.76,1,23.41,23.41,0,0,1-11.35-3.21c-1-.65-1.12-.76-.53-1.75C368.06,67,369,65.62,369.79,64.25Z"/><path d="M354.36,41.83c2.19,0,4.25,0,6.31,0,.21,0,.47.33.59.56s0,.45,0,.68c0,5.77,0,11.55,0,17.33a12.64,12.64,0,0,1-3.41,8.86,12.94,12.94,0,0,1-8.4,3.94,23.87,23.87,0,0,1-2.91.21,15.39,15.39,0,0,1-8.7-2.58c-2.72-2-4.74-4.61-4.89-8-.29-6.59-.21-13.2-.28-19.81V41.83c2.19,0,4.28,0,6.37,0,.19,0,.51.52.53.8.05,1.43,0,2.86,0,4.29,0,4.31,0,8.63,0,12.95a6.82,6.82,0,0,0,1.66,4.7c1.93,2.07,4.46,2.43,7.1,2.06,4.26-.6,5.87-3.46,5.93-7.18.09-5.52,0-11,0-16.55C354.37,42.62,354.36,42.29,354.36,41.83Z"/><path d="M317.76,26.63c2.14,0,4.2,0,6.26,0,.21,0,.44.35.6.58s0,.31,0,.48v44.9h-6.88Z"/><path d="M222.81,41.82v3.29a10.49,10.49,0,0,1,6.28-3.79,14.6,14.6,0,0,1,7.3.45c.45.15.55.3.42.82-.54,2.07-1,4.17-1.46,6.27l-3-.78c-4.14-1.08-8.4.94-9.16,5.62a11.17,11.17,0,0,0-.19,1.72c0,5.45,0,10.9,0,16.35v.83h-6.86A3.57,3.57,0,0,1,216,72c0-9.67,0-19.34,0-29,0-.92.24-1.26,1.21-1.23C219,41.87,220.84,41.82,222.81,41.82Z"/><path class="cls-1" d="M17.81,72.47H76l.12-.2c-.66-.58-1.31-1.17-2-1.74C72.37,69,70.58,67.47,68.75,66a1.8,1.8,0,0,0-1.21-.19c-2.21.29-4.41.78-6.63.92-2.55.16-5.12,0-7.68,0a2.63,2.63,0,0,1-2.8-1.8c-1.58-3.47-3.19-6.92-4.77-10.38-1.82-4-3.62-8-5.45-12-1.3-2.81-2.67-5.6-4-8.42-1.85-4-3.65-8.05-5.46-12.07,14.31-8.18,35.57-5,46.64,11.65s6.38,38.57-11.08,49.38A35.77,35.77,0,0,1,17.81,72.47Z"/><path class="cls-1" d="M264.81,57.39A9.54,9.54,0,0,1,262,64.27a8.88,8.88,0,0,1-8,2.4c-4.5-.72-6.82-3.87-7.38-8a9.69,9.69,0,0,1,2.57-8.33,8.86,8.86,0,0,1,9.68-2.07,8.69,8.69,0,0,1,5.66,6.89C264.64,55.93,264.71,56.66,264.81,57.39Z"/><path class="cls-1" d="M304.33,57.28a9.15,9.15,0,0,1-2.68,6.91,8.82,8.82,0,0,1-7.85,2.49c-4.47-.65-7.09-3.76-7.59-8.08A9.8,9.8,0,0,1,289,50.18a9.15,9.15,0,0,1,12-.43A9.52,9.52,0,0,1,304.33,57.28Z"/><path class="cls-1" d="M183.78,57.31a9.18,9.18,0,0,1,9.45-9.57,9.35,9.35,0,0,1,9.45,10.07,9.23,9.23,0,0,1-10.18,9A9.12,9.12,0,0,1,183.78,57.31Z"/></g></svg>