<svg id="Layer_1" data-name="Layer 1" xmlns="http://www.w3.org/2000/svg" viewBox="0 0 384.43 90.16"><g id="zBA1vm"><path d="M184.24,12.68a60.56,60.56,0,0,1,6.41-.74c9.82-.07,19.65-.16,29.46.05a32.1,32.1,0,0,1,9.27,1.6c9.44,3.14,14.89,10,16,19.72,1.11,9.53-2.53,17.28-10.54,22.74-2.17,1.48-4.6,2.58-7.38,4.12.9,1.85,1.69,3.62,2.61,5.32q6.61,12.3,13.28,24.57c1.2,2.23,2.32,4.47.36,7.87l-6.23.87L216.37,60.65H193.13c-.15,2-.39,3.74-.4,5.5q-.09,12.48-.07,25c0,2.54,0,5-2.6,7.15h-4.35c-2.35-1.33-2.47-3.46-2.46-5.69q0-36.94.11-73.91A44.11,44.11,0,0,1,184.24,12.68Zm8.88,37.77a17.56,17.56,0,0,0,2.69.48c8.14,0,16.29.13,24.43-.1A26,26,0,0,0,228,49.11,11.54,11.54,0,0,0,235.42,41c3-10.1-2.48-18.52-13.79-19.4-9.07-.71-18.24-.07-27.37,0-.26,0-.52.36-1.14.82Z" transform="translate(-7.37 -9.3)"/><path d="M142.35,60.62H119.14c-.15,2-.39,3.7-.41,5.46q-.09,12.74-.07,25.47c0,2.38-.16,4.67-2.55,6.7H110.5c-.42-1.91-1.19-3.76-1.19-5.6q-.09-37.22,0-74.42a33.87,33.87,0,0,1,.86-5.19A29.8,29.8,0,0,1,115.6,12c10.65-.09,21.31-.24,32,0,12.13.29,21.22,8.12,23.59,19.81,2,10-2.62,20-11.93,25.32-1.71,1-3.51,1.81-5.66,2.91.81,1.77,1.45,3.42,2.28,5q6.72,12.53,13.51,25c1.21,2.23,2.28,4.47.49,7.87l-6.31,1C156.31,85.81,149.32,73.21,142.35,60.62ZM118.84,21.3c0,10.35-.21,19.72,0,28.9a9.48,9.48,0,0,0,2.09.67c8.81,0,17.62.1,26.43-.07a20.62,20.62,0,0,0,6.25-1.51,11.87,11.87,0,0,0,7.69-7.9c2.94-9.08-1.15-16.73-10.42-19.11a29.22,29.22,0,0,0-6.37-.91c-5.32-.13-10.64-.06-16-.07Z" transform="translate(-7.37 -9.3)"/><path d="M258.25,43q0-12,0-24a29.13,29.13,0,0,1,.06-3.5c.34-2.9,1.93-4.5,4.34-4.56a4.74,4.74,0,0,1,4.81,4.2,24.85,24.85,0,0,1,.17,4.49q0,22,0,44a58.11,58.11,0,0,0,.21,7c1.37,10.88,9.35,17.91,20.14,18.53,12.72.72,21.68-8.77,22.63-17.54a78.46,78.46,0,0,0,.57-8c.07-14.83.05-29.65.1-44.48a17.57,17.57,0,0,1,.46-4.93A4.32,4.32,0,0,1,316.28,11c2.38,0,3.6,1.54,4.15,3.64a12.81,12.81,0,0,1,.21,3c0,16.49.14,33-.05,49.48-.16,13.73-7.75,25-19.58,29.24-20.16,7.32-42.4-4.55-42.74-29.35C258.16,59,258.25,51,258.25,43Z" transform="translate(-7.37 -9.3)"/><path d="M383.24,25.32l-6.76-3.24c-6.62-3.2-13.44-4.82-20.76-2.73-4.11,1.18-7.72,3.11-10.29,6.62-4.23,5.79-3.5,12.54,2.29,16.72a45.45,45.45,0,0,0,10.15,5.2c4.79,1.88,9.77,3.25,14.65,4.88,2.21.74,4.4,1.52,6.55,2.41,15.75,6.51,15.37,24.44,7.05,33.63A28.61,28.61,0,0,1,368.29,98c-13,1.78-24.7-1.75-35.23-9.41a10,10,0,0,1-1.54-1.76c-.21-4.84-.21-4.84,4.63-7,1.94,1.16,4.21,2.49,6.45,3.86,8.65,5.31,17.88,7,27.74,4.24a17.88,17.88,0,0,0,9.12-5.83c5.38-6.48,3.66-14.84-4-18.13-5.17-2.22-10.69-3.62-16-5.6-5-1.87-10.08-3.56-14.68-6.14C330.2,44,329.47,24.46,343.2,14.86c8.34-5.83,17.7-6.64,27.24-4.43a59.78,59.78,0,0,1,13.83,5.48C389.27,18.51,388.93,22,383.24,25.32Z" transform="translate(-7.37 -9.3)"/><path d="M68.79,36.29c-2.14,2.74-4.15,3.48-7.35,2.5-.93-1.81-2.08-4-3.17-6.17a21.71,21.71,0,0,0-41.42,8.77c-.34,9-.31,18,0,27,.33,10.11,6,17.77,14.66,20.56,9.33,3,18.41.11,24.87-8,.31-.39.57-.82.89-1.2,3.48-4.16,6.23-3.86,9.5,1.6a34.54,34.54,0,0,1-3.13,5.61c-8.7,10.76-20,14.68-33.36,11.4-12.84-3.16-19.86-12-22.16-24.83a41.33,41.33,0,0,1-.74-7.92c.16-9.81-.2-19.7,1-29.4C10,22.31,22.13,11.8,35.88,10.93c15.37-1,27.4,6.61,32.36,21.21A20,20,0,0,1,68.79,36.29Z" transform="translate(-7.37 -9.3)"/><path d="M87.75,98.24h-5c-.52-1.66-1.46-3.3-1.46-4.94q-.15-37.18,0-74.37a9.16,9.16,0,0,1,.62-3.37c.89-2.12,2.69-2.82,4.89-2.59a4,4,0,0,1,3.74,3.45,16.13,16.13,0,0,1,.18,3.48q0,35.69-.06,71.38C90.65,93.8,90.79,96.34,87.75,98.24Z" transform="translate(-7.37 -9.3)"/></g></svg>